<svg width="48" height="49" viewBox="0 0 48 49" fill="none" xmlns="http://www.w3.org/2000/svg">
<path d="M33 24.5C33.0015 25.3758 32.8318 26.2433 32.5006 27.0529C32.1693 27.8625 31.683 28.5983 31.0695 29.2184L20.2665 40.108C20.0175 40.359 19.6798 40.5 19.3277 40.5C18.9756 40.5 18.6379 40.359 18.3889 40.108C18.1399 39.857 18 39.5166 18 39.1617C18 38.8067 18.1399 38.4663 18.3889 38.2153L29.1918 27.3257C29.9347 26.576 30.352 25.5596 30.352 24.5C30.352 23.4404 29.9347 22.424 29.1918 21.6743L18.3889 10.7847C18.1399 10.5337 18 10.1933 18 9.83833C18 9.48338 18.1399 9.14297 18.3889 8.89199C18.6379 8.641 18.9756 8.5 19.3277 8.5C19.6798 8.5 20.0175 8.641 20.2665 8.89199L31.0695 19.7816C31.683 20.4017 32.1693 21.1375 32.5006 21.9471C32.8318 22.7567 33.0015 23.6242 33 24.5Z" fill="#D2D7DA"/>
</svg>
