<svg width="24" height="24" viewBox="0 0 24 24" fill="none" xmlns="http://www.w3.org/2000/svg">
<path d="M19.1162 11.2107L16.0077 13.558C15.88 13.6542 15.785 13.7897 15.7362 13.945C15.6875 14.1003 15.6874 14.2675 15.7361 14.4229L16.9176 18.1969C16.9774 18.3883 16.9768 18.5944 16.9161 18.7855C16.8554 18.9766 16.7376 19.1429 16.5796 19.2604C16.4216 19.378 16.2316 19.4408 16.0369 19.4397C15.8422 19.4387 15.6529 19.3739 15.4961 19.2547L12.4393 16.9298C12.3105 16.8321 12.1549 16.7795 11.9952 16.7795C11.8354 16.7795 11.6799 16.8321 11.5511 16.9298L8.4943 19.2547C8.33758 19.3755 8.14769 19.4417 7.95215 19.4435C7.75661 19.4453 7.56559 19.3828 7.40677 19.2649C7.24796 19.147 7.12961 18.98 7.06889 18.788C7.00816 18.5959 7.00822 18.3889 7.06904 18.1969L8.25425 14.4229C8.30295 14.2675 8.30292 14.1003 8.25415 13.945C8.20539 13.7897 8.11039 13.6542 7.98271 13.558L4.87414 11.2107C4.71759 11.0923 4.60127 10.9258 4.54179 10.735C4.48231 10.5442 4.48271 10.3388 4.54295 10.1483C4.60318 9.95774 4.72016 9.79173 4.87717 9.67397C5.03419 9.55622 5.22321 9.49273 5.41724 9.49259H9.24293C9.40175 9.49259 9.55647 9.44051 9.6848 9.34386C9.81314 9.24721 9.90847 9.11097 9.95706 8.95477L11.1198 5.21096C11.1795 5.01938 11.2964 4.8523 11.4539 4.73378C11.6113 4.61526 11.8011 4.5514 11.9959 4.5514C12.1907 4.5514 12.3805 4.61526 12.538 4.73378C12.6954 4.8523 12.8124 5.01938 12.8721 5.21096L14.0348 8.95477C14.0834 9.11097 14.1787 9.24721 14.3071 9.34386C14.4354 9.44051 14.5901 9.49259 14.7489 9.49259H18.5746C18.7687 9.49273 18.9577 9.55622 19.1147 9.67397C19.2717 9.79173 19.3887 9.95774 19.4489 10.1483C19.5092 10.3388 19.5096 10.5442 19.4501 10.735C19.3906 10.9258 19.2743 11.0923 19.1177 11.2107H19.1162Z" fill="#ADD694"/>
</svg>
